# xmcd CD database file generated by Grip 3.2.0
# 
# Track frame offsets:
#       150
#       21235
#       46810
#       67895
# 
# Disc length: 1242 seconds
# 
# Revision: 2
# Processed by: cddbd v1.5.2PL0 Copyright (c) Steve Scherf et al.
# Submitted via: Grip 3.2.0
# 
DISCID=2904d804
DTITLE=飛蘭 - I sing by my soul
DYEAR=2009
DGENRE=Anime
TTITLE0=I sing by my soul
TTITLE1=All I can do is singing for you
TTITLE2=I sing by my soul (off vocal)
TTITLE3=All I can do is singing for you (off vocal)
EXTD=YEAR: 2004
EXTT0=
EXTT1=
EXTT2=
EXTT3=
PLAYORDER=
